<svg xmlns="http://www.w3.org/2000/svg" width="1953.904" height="1185.848" viewBox="0 0 1953.904 1185.848">
  <defs>
    <style>
      .cls-1 {
        fill: #fff;
      }
    </style>
  </defs>
  <path id="Path_8" data-name="Path 8" class="cls-1" d="M905.118,870.536c16.047-1.139,9.163-39.473,130.492-54.689,18.246,7.363,56,21.961,120.39,26.529,29.949-6.159,63.113-12.01,103.818-17.525,26.2,5.762,53.479,2.041,81.105,0,13.026-.963,27.718,18.348,40.975,17.525,20.478-1.271,42.244,13.373,72.782,0,12.508-.626,33.685-25.935,47.052-26.529,15.166-.674,40.031,17.93,55.615,17.37,19.862-.715,63.248-16.77,83.829-17.37,10.355-.3,30.245.266,40.917,0,9.23-.23,52.5,26.733,62.006,26.529,4.566-.1,5.169-9.07,9.468-9.159,3.183-.066,23.346-22.849,47.086-17.37,23.017,4.435,41.419,9.062,44.367,9,21.478-.42,66.053-14.911,87.7-15.219,8.084-.115,14.5,23.678,22.646,23.585,6.515-.074,31.551-43.209,79.5-23.585,18.953-.2,30.6,18.922,50.153,23.585,14.006,3.339,69.725-22.725,85.727-23.585,15.578-.837-8.564,23.519,4.625,23.585,21.239.107,69.742-23.7,90.2-23.585,29.217.157,55.749,14.518,82.589,14.975,20.172.344,101.573,25.652,119.354,13.163,28.108.541,63.586-28.468,87.964-28.138,42.124.57,53.138,21.521,84.333,23.585,117.893-34.249,187.45,4.553,187.45,4.553s-1.247,1040.028-1.247,1093.281c0,8.5-52-4.321-104.434,0-40.544,15.5-77.164,21.583-118.864,6.266-19.762,15.293-51.7,15.1-88.114,10.451-40.552-5.179-86.7-15.976-127.137-16.717-22.788-.417-79.867,28.272-103.534,27.535-26.567-.828-45.9-26.647-73.578-27.535-70.539-33.245-58.808,7.068-81.533,6.266-12.907-.455-34.552-18.353-47.914-18.809-24.2-.826-65.036,13.419-89.31,12.543-33.386-1.2-65.9-23.5-100.295-24.568-41.133-19.7-51.59,12.514-67.889,12.025-72.792,30.6-82.252-4.988-102.792-5.566-14.858,12.109-59.09-13.736-77.931-14.194-11.714,17.009-45.194,32.651-59.358,32.3-57.07,11.753-60.1.538-81.621,0-21.848-1.8-41.9-32.052-52.944-32.3-17.307-10.684-65.339,26.01-86.144,25.553-33.458,6.409-58.266-5.587-68.02-5.793-5.664-.12-5.9-11.906-11.815-12.025-8.161-.164-20.393-7.585-28.865-7.736-10.177-.181-20.193,7.881-29.55,7.736-19.741-.307-39.65,32.174-58.284,31.893-3.7-.056-13.591-7.282-16.508-7.326-8.061-.119-36.441,7.434-43.95,7.326-52.861,19.553-101.079,15.637-129.033,15.047-9.959-.21-23.6-9.42-31.03-9.594a76.645,76.645,0,0,1-40.448-12.779Z" transform="translate(-889.237 -788.633)"/>
</svg>
